<svg width="177" height="174" viewBox="0 0 177 174" fill="none" xmlns="http://www.w3.org/2000/svg">
<g id="Group 8738">
<g id="icon_2">
<path d="M137.853 99.5034C137.853 85.7608 52.8194 91.7359 38.5106 84.3772C42.1901 92.1447 129.676 85.1948 135.4 98.6857C140.441 110.569 -33.0752 112.959 5.80542 150.605C31.5608 175.543 96.1539 154.693 96.1539 154.693C96.1539 154.693 36.467 172.272 9.07655 150.605C-38.359 113.081 137.853 116.265 137.853 99.5034Z" fill="white"/>
<path fill-rule="evenodd" clip-rule="evenodd" d="M45.0521 77.4274L44.2339 77.0183L41.3722 75.5875L40.9639 75.3833L38.5106 84.3772L45.0521 77.4274ZM41.3722 76.2009L38.9193 83.5596L39.2192 83.2432L39.8213 82.6079L44.7103 77.4494L41.3722 76.2009Z" fill="white"/>
<path d="M75.3044 0.161387L40.9639 75.3833L41.3722 75.5875L75.5124 0.681533L78.3908 1.89819C65.2182 30.4973 53.2545 58.6274 44.2339 77.0183L45.0521 77.4274L78.9837 1.79665L75.3044 0.161387Z" fill="white"/>
<path d="M39.4283 82.742L39.2192 83.2432L39.8213 82.6079L41.9666 79.6173L39.8213 82.2582L39.4283 82.742Z" fill="white"/>
<path d="M40.7296 79.1389L38.9193 83.5596L39.2192 83.2432L39.4283 82.742L39.6263 82.1937L40.7296 79.1389Z" fill="white"/>
<path d="M39.6263 82.1937L39.4283 82.742L39.8213 82.2582L41.3722 79.0626L39.6263 82.1937Z" fill="white"/>
<path fill-rule="evenodd" clip-rule="evenodd" d="M75.2432 0L75.4308 0.0833809L75.3807 0.196225L75.4159 0.21232L75.2371 0.604099L75.0139 0.502233L75.2432 0ZM76.0977 0.648207L75.6378 0.4438L75.7374 0.219652L76.1974 0.42406L76.0977 0.648207ZM75.4503 0.522123L75.6201 0.593912L75.5717 0.708544L75.624 0.732397L75.4462 1.12252L75.223 1.02079L75.4503 0.522123ZM76.1243 1.07332L75.7645 0.921235L75.86 0.6953L76.2198 0.847382L76.1243 1.07332ZM77.4775 1.26143L76.711 0.920751L76.8106 0.696603L77.5771 1.03728L77.4775 1.26143ZM77.2037 1.52956L76.604 1.27609L76.6995 1.05016L77.2992 1.30363L77.2037 1.52956ZM78.5506 1.73838L78.0907 1.53397L78.1903 1.30982L78.6502 1.51423L78.5506 1.73838ZM78.0433 1.88442L77.6834 1.73234L77.7789 1.5064L78.1388 1.65848L78.0433 1.88442ZM78.9072 1.76231L78.8718 1.74644L78.6951 2.14035L78.9189 2.24076L79.146 1.73456L78.9569 1.6505L78.9072 1.76231ZM78.3317 1.87093L78.2794 1.84688L78.0995 2.23767L78.3223 2.34023L78.5552 1.83451L78.3786 1.75987L78.3317 1.87093ZM74.5217 2.17122L73.4485 4.5219L73.2254 4.42004L74.2985 2.06935L74.5217 2.17122ZM74.735 2.68306L73.6681 5.02387L73.4449 4.92214L74.5117 2.58133L74.735 2.68306ZM76.9278 6.07945L77.9882 3.71599L78.212 3.8164L77.1516 6.17986L76.9278 6.07945ZM76.3069 6.14508C76.6641 5.36407 77.0222 4.58235 77.3813 3.80013L77.6042 3.90246C77.2452 4.68458 76.8871 5.46619 76.53 6.24709L76.3069 6.14508ZM72.0177 7.65615L70.2291 11.574L70.006 11.4721L71.7945 7.55428L72.0177 7.65615ZM72.2456 8.14495L70.4674 12.0463L70.2442 11.9446L72.0224 8.04322L72.2456 8.14495ZM73.7467 13.1698L75.514 9.23073L75.7378 9.33114L73.9705 13.2702L73.7467 13.1698ZM73.1025 13.1876C73.6919 11.8862 74.2843 10.5812 74.8796 9.27345L75.1028 9.37508C74.5076 10.6826 73.9152 11.9875 73.3259 13.2888L73.1025 13.1876ZM68.7982 14.7082L67.7251 17.0589L67.502 16.957L68.5751 14.6063L68.7982 14.7082ZM69.0449 15.1674L67.978 17.5082L67.7548 17.4065L68.8217 15.0657L69.0449 15.1674ZM71.2725 18.6846L72.3329 16.3211L72.5567 16.4215L71.4963 18.785L71.2725 18.6846ZM70.6262 18.6728C70.9782 17.8908 71.3315 17.107 71.6859 16.3216L71.9094 16.4225C71.5551 17.2078 71.2019 17.9915 70.8499 18.7735L70.6262 18.6728ZM67.0097 18.626L66.652 19.4096L66.4288 19.3077L66.7865 18.5241L67.0097 18.626ZM67.2668 19.0687L66.9112 19.849L66.688 19.7473L67.0436 18.967L67.2668 19.0687ZM69.5687 21.0247L69.9214 20.2397L70.1451 20.3403L69.7925 21.1252L69.5687 21.0247ZM70.2122 21.048L70.5656 20.2602L70.7894 20.3606L70.436 21.1484L70.2122 21.048ZM65.9365 20.9767L64.8634 23.3274L64.6403 23.2255L65.7134 20.8748L65.9365 20.9767ZM66.1999 21.4095L65.133 23.7504L64.9098 23.6486L65.9767 21.3078L66.1999 21.4095ZM67.8097 24.947C68.16 24.1647 68.5117 23.38 68.8647 22.5931L69.0885 22.6935C68.7355 23.4803 68.3838 24.265 68.0335 25.0473L67.8097 24.947ZM68.4449 24.9871L69.5053 22.6237L69.729 22.7241L68.6687 25.0875L68.4449 24.9871ZM63.4325 26.4616L61.644 30.3794L61.4208 30.2776L63.2094 26.3598L63.4325 26.4616ZM63.7105 26.8714L61.9324 30.7728L61.7092 30.6711L63.4873 26.7697L63.7105 26.8714ZM64.652 32.0113C65.2325 30.7108 65.8172 29.4015 66.4059 28.0845L66.6298 28.1846C66.0411 29.5016 65.4565 30.8108 64.876 32.1113L64.652 32.0113ZM65.2638 32.0775L67.0311 28.1384L67.2549 28.2388L65.4876 32.1779L65.2638 32.0775ZM60.2131 33.5137L59.14 35.8644L58.9169 35.7625L59.99 33.4118L60.2131 33.5137ZM60.5099 33.8939L59.443 36.2347L59.2198 36.1329L60.2867 33.7921L60.5099 33.8939ZM62.2004 37.5067L63.2511 35.1511L63.4751 35.251L62.4244 37.6066L62.2004 37.5067ZM62.7896 37.5923L63.85 35.2288L64.0738 35.3292L63.0134 37.6927L62.7896 37.5923ZM58.4246 37.4315L58.0669 38.215L57.8437 38.1132L58.2014 37.3296L58.4246 37.4315ZM58.7317 37.7952L58.3761 38.5755L58.1529 38.4738L58.5085 37.6935L58.7317 37.7952ZM61.1496 39.8622L61.5 39.0768L61.724 39.1767L61.3736 39.9621L61.1496 39.8622ZM61.7293 39.9557L62.0827 39.1679L62.3065 39.2683L61.9531 40.0561L61.7293 39.9557ZM57.3514 39.7822L56.2783 42.1329L56.0552 42.031L57.1283 39.6803L57.3514 39.7822ZM57.6649 40.136L56.598 42.4768L56.3748 42.3751L57.4417 40.0343L57.6649 40.136ZM59.3977 43.7863C59.7463 43.0061 60.0968 42.2211 60.4492 41.4317L60.6732 41.5317C60.3208 42.3211 59.9702 43.1061 59.6216 43.8864L59.3977 43.7863ZM59.962 43.8948L61.0223 41.5313L61.2461 41.6318L60.1858 43.9952L59.962 43.8948ZM54.8474 45.2671L53.0589 49.1849L52.8357 49.083L54.6243 45.1652L54.8474 45.2671ZM55.1755 45.5979L53.3973 49.4993L53.1741 49.3975L54.9523 45.4962L55.1755 45.5979ZM56.2351 50.847C56.8152 49.5562 57.4013 48.2489 57.9934 46.9264L58.2172 47.0266C57.6251 48.3492 57.0389 49.6566 56.4589 50.9476L56.2351 50.847ZM56.7809 50.9852L58.5482 47.0461L58.772 47.1465L57.0047 51.0856L56.7809 50.9852ZM51.628 52.3192L50.5549 54.6698L50.3317 54.568L51.4049 52.2173L51.628 52.3192ZM51.9748 52.6203L50.9079 54.9612L50.6847 54.8594L51.7516 52.5186L51.9748 52.6203ZM53.7609 56.3336C54.1124 55.5574 54.4665 54.7741 54.823 53.9838L55.0466 54.0847C54.69 54.875 54.3359 55.6585 53.9844 56.4348L53.7609 56.3336ZM54.3067 56.4999L55.3671 54.1365L55.5909 54.2369L54.5305 56.6003L54.3067 56.4999ZM49.8395 56.237L49.4817 57.0205L49.2586 56.9187L49.6163 56.1351L49.8395 56.237ZM50.1967 56.5217L49.8411 57.302L49.6179 57.2002L49.9735 56.42L50.1967 56.5217ZM52.6954 58.6815C52.8136 58.4216 52.9321 58.1609 53.0509 57.8992L53.2743 58.0007C53.1554 58.2624 53.0369 58.5232 52.9186 58.7831L52.6954 58.6815ZM53.2463 58.8634L53.5998 58.0756L53.8236 58.176L53.4701 58.9638L53.2463 58.8634ZM48.7663 58.5876L47.6932 60.9383L47.47 60.8365L48.5432 58.4858L48.7663 58.5876ZM49.1298 58.8625L48.0629 61.2033L47.8397 61.1016L48.9066 58.7608L49.1298 58.8625ZM50.9088 62.5916C51.2636 61.8188 51.6214 61.0371 51.9822 60.2467L52.2053 60.3485C51.8445 61.1391 51.4866 61.921 51.1317 62.694L50.9088 62.5916ZM51.4791 62.8025L52.5394 60.439L52.7632 60.5394L51.7029 62.9029L51.4791 62.8025ZM46.2623 64.0726L44.4738 67.9904L44.2506 67.8885L46.0392 63.9707L46.2623 64.0726ZM46.6404 64.3244L44.8623 68.2257L44.6391 68.124L46.4172 64.2227L46.6404 64.3244ZM47.6535 69.6028C48.2493 68.3363 48.8553 67.0376 49.4711 65.7089L49.6936 65.8121C49.0776 67.1412 48.4715 68.4402 47.8755 69.7072L47.6535 69.6028ZM48.298 69.8929L50.0653 65.9538L50.2891 66.0542L48.5218 69.9933L48.298 69.8929ZM43.0429 71.1246L41.9698 73.4753L41.7466 73.3735L42.8198 71.0228L43.0429 71.1246ZM43.4398 71.3468L42.3729 73.6876L42.1497 73.5859L43.2166 71.2451L43.4398 71.3468ZM45.0637 75.0351C45.4309 74.2765 45.8027 73.5029 46.1789 72.715L46.4003 72.8206C46.0238 73.609 45.6519 74.383 45.2844 75.142L45.0637 75.0351ZM45.8238 75.4076L46.8842 73.0441L47.108 73.1445L46.0476 75.508L45.8238 75.4076ZM41.0796 75.4252L41.2543 75.0424L41.0312 74.9406L40.8482 75.3414L40.7945 75.5384L41.0311 75.6029L41.0796 75.4252ZM41.6616 75.2482L41.4838 75.6383L41.4329 75.6151L41.377 75.7269L41.3089 75.6929L41.3636 75.5835L41.3289 75.5677L41.2748 75.6759L41.2238 75.6504L41.277 75.544L41.2606 75.5366L41.4384 75.1464L41.6616 75.2482ZM41.1558 75.6163L41.0707 75.5738L41.1804 75.3544L41.2655 75.3969L41.1558 75.6163ZM41.9732 76.025L41.6155 75.8462L41.7252 75.6268L42.0829 75.8056L41.9732 76.025ZM41.2961 76.0415L41.4847 76.1121L41.4427 76.2244L41.4886 76.2397L41.4375 76.393L41.2048 76.3154L41.2961 76.0415ZM43.0463 76.5616L42.4501 76.2635L42.5598 76.0441L43.156 76.3422L43.0463 76.5616ZM42.0942 76.6019L41.677 76.4458L41.7629 76.2161L42.1802 76.3721L42.0942 76.6019ZM40.8267 76.3524L40.52 77.4767L40.2834 77.4121L40.59 76.2879L40.8267 76.3524ZM43.346 77.0701L42.6506 76.81L42.7365 76.5802L43.432 76.8403L43.346 77.0701ZM43.881 76.9789L43.5233 76.8001L43.633 76.5807L43.9907 76.7596L43.881 76.9789ZM44.1238 76.9643C44.1859 76.8376 44.2482 76.7105 44.3106 76.5829L44.531 76.6907C44.4865 76.7817 44.442 76.8725 44.3976 76.963L44.4763 77.0023L44.38 77.1949L44.4056 77.2044L44.3196 77.4342L43.9024 77.2781L43.9883 77.0484L44.1198 77.0976L44.1741 76.9889L44.1238 76.9643ZM44.251 77.0267L44.2005 77.1277L44.2723 77.1546L44.3195 77.0602L44.251 77.0267ZM41.2331 77.0062L40.9265 77.9261L40.6938 77.8485L41.0004 76.9287L41.2331 77.0062ZM44.9925 77.2605L45.1169 76.9832L45.3407 77.0836L45.1555 77.4964L45.0051 77.6562L44.835 77.4961L44.6975 77.6412L44.5195 77.4725L44.6213 77.365L44.6518 77.3939L44.6611 77.369L44.5029 77.2899L44.6126 77.0705L44.7831 77.1557L44.7031 77.3157L44.8467 77.3694L44.9194 77.2239L44.9925 77.2605ZM43.5009 78.5472L44.112 77.9023L44.2901 78.0711L44.2879 78.0734L44.46 78.2354L43.6423 79.1041L43.4637 78.936L43.6746 78.7118L43.5009 78.5472ZM40.1111 78.9757L39.6 80.8494L39.3634 80.7848L39.8745 78.9111L40.1111 78.9757ZM41.4466 79.181L41.443 79.1876L41.3272 79.123L41.2296 79.0756L41.2323 79.0701L41.2287 79.0681L41.2651 79.0029L41.4826 79.1162L41.4503 79.1827L41.4466 79.181ZM40.5176 79.1525L40.0066 80.6856L39.7739 80.608L40.2849 79.0749L40.5176 79.1525ZM40.8194 79.2433L40.8054 79.2775L40.5784 79.1845L40.6161 79.0924L40.845 79.1806L40.822 79.2442L40.8194 79.2433ZM41.0857 79.8284L41.0792 79.8399L40.865 79.7204L41.0832 79.329L41.147 79.3646L41.321 79.449L41.1271 79.8485L41.0857 79.8284ZM41.6675 80.4816L42.6861 79.4069L42.8641 79.5757L41.8455 80.6504L41.6675 80.4816ZM40.4469 79.5608L40.4994 79.4154L40.7301 79.4988L40.5921 79.8806L40.5628 79.87L40.4283 80.1984L40.2013 80.1055L40.4276 79.5529L40.4469 79.5608ZM42.018 79.7486L42.0171 79.7497L41.9987 79.7346L41.8223 79.6081L41.8299 79.5975L41.8268 79.595L41.8715 79.54L42.0663 79.6888L42.0216 79.7511L42.018 79.7486ZM41.8243 79.987L41.8384 79.9697L41.648 79.8151L41.3798 80.1452L41.416 80.1746L41.3753 80.2312L41.5747 80.3741L41.8428 80.0003L41.8243 79.987ZM42.552 80.2624L41.1892 81.7103L41.0106 81.5422L42.3734 80.0943L42.552 80.2624ZM40.4359 80.9936L40.4245 81.0141L40.2233 80.9018L40.1784 81.0262L40.1008 80.9981L39.9276 81.4211L40.0564 81.4929L40.0664 81.4723L40.287 81.5794L40.2688 81.6171L40.4081 81.7303L40.2744 81.8949L40.3063 81.9178L40.7323 81.4684L40.5708 81.3526L40.6709 81.2132L40.5753 81.1355L41.0223 80.5853L41.2126 80.74L41.1462 80.8217L41.2171 80.8726L40.8694 81.3572L41.0307 81.5101L40.4196 82.1549L40.3467 82.0859L40.1444 82.3679L39.9451 82.2249L40.0914 82.021L39.96 81.9142L39.9305 81.9L39.9153 81.9273L39.8634 81.8983L39.8566 81.9172L39.6259 81.8338L39.6348 81.8093L39.5224 81.7632L39.8996 80.8423L39.9731 80.8724L40.1776 80.3064L40.4083 80.3898L40.2547 80.815L40.574 80.2423L40.6443 80.2815L40.648 80.274L40.8687 80.3811L40.5455 81.0468L40.4359 80.9936ZM39.1096 82.7713L39.0083 83.0188L39.0786 82.761L39.1096 82.7713ZM39.3456 82.8423L39.3113 82.9261L39.4488 82.9834L39.3685 82.9074L39.4062 82.8676L39.3456 82.8423ZM39.4562 82.8149L39.4831 82.7864L39.4594 82.7672L39.3885 82.7376L39.3713 82.7795L39.4562 82.8149ZM39.5063 82.7868L39.5372 82.7996L39.5415 82.7892L39.4707 82.7596L39.4654 82.7553L39.5437 82.7836L39.5478 82.7722L39.4368 82.7321L39.4022 82.704L39.4151 82.6726L39.4706 82.6927L39.5645 82.7689L39.6136 82.7084L39.5805 82.6816L39.5891 82.658L39.5214 82.6335L39.4232 82.5538L39.4054 82.5757L39.3801 82.5653L39.4057 82.4884L39.589 82.5547L39.6533 82.6069L39.5943 82.6691L39.7723 82.8379L39.8476 82.7585L39.6924 82.6114L39.7385 82.5546L39.8978 82.7055L40.0122 82.5848L39.8437 82.4251L39.8755 82.3859L39.6852 82.2313L39.6549 82.2686L39.4979 82.2119L39.5132 82.1658L39.6921 82.2304L39.7334 82.2534L39.7501 82.2237L39.7701 82.2334L39.9083 82.3456L39.9612 82.2805L39.9508 82.2721L39.9639 82.2452L39.849 82.1894L39.7708 82.1259L39.7559 82.1442L39.7433 82.1381L39.7326 82.1601L39.6954 82.1467L39.5556 82.0688L39.5428 82.0916L39.5385 82.09L39.5978 81.912L39.3651 81.8344L39.1792 82.3922L39.1911 82.3484L38.9545 82.2838L38.6478 83.4081L38.8245 83.4563L38.803 83.5208L39.0084 83.6439L39.0146 83.6374L38.9426 83.5691L39.0328 83.6061L39.0333 83.605L39.0396 83.611L39.0771 83.5714L39.0554 83.5509L39.0706 83.514L39.0646 83.5115L39.0778 83.472L39.1271 83.5187L39.1895 83.4528L39.0115 83.2841L38.949 83.35L39.029 83.4258L38.9082 83.3855L38.9986 83.0543L39.1408 83.1126L39.1278 83.1438L39.1397 83.1487L39.1239 83.1654L39.1725 83.2114L39.1104 83.1855L39.106 83.196L39.1956 83.2334L39.302 83.3341L39.3208 83.3143L39.2666 83.263L39.3324 83.2904L39.3367 83.28L39.2434 83.2411L39.151 83.1534L39.3404 83.2325L39.3709 83.2614L39.4462 83.182L39.301 83.0444L39.4152 83.092L39.4572 82.9914L39.5465 83.0761L39.672 82.9437L39.531 82.8101L39.5317 82.8092L39.5199 82.7996L39.5063 82.7868ZM39.4748 82.281L39.4441 82.3732L39.5413 82.4083L39.5705 82.3724L39.7404 82.5103L39.7663 82.4741L39.7739 82.4796L39.8145 82.4367L39.702 82.3453L39.6963 82.361L39.4748 82.281ZM39.3971 82.7166L39.3967 82.7176L39.3997 82.7187L39.3971 82.7166ZM40.099 82.8686L39.2813 83.7373L39.1027 83.5692L39.9204 82.7005L40.099 82.8686ZM39.277 83.3605L39.2395 83.4001L39.0615 83.2313L39.0989 83.1918L39.277 83.3605ZM38.5274 84.1805L38.4434 84.1576L38.3803 84.3887L38.3998 84.4297C38.4575 84.5516 38.5335 84.6687 38.6262 84.7812L38.7868 84.649C38.796 84.6533 38.8053 84.6576 38.8147 84.6619L38.9178 84.4394C38.8479 84.407 38.7795 84.3744 38.7126 84.3415L38.7362 84.3165L38.671 84.2551L38.68 84.2221L38.6179 84.2052L38.5576 84.1484L38.5274 84.1805ZM40.5018 85.0515C41.2308 85.2899 42.0517 85.5118 42.9568 85.7187L42.9022 85.9579C41.9916 85.7497 41.1632 85.5259 40.4256 85.2846L40.5018 85.0515ZM42.3994 86.5428C41.4726 86.3095 40.6845 86.0515 40.0539 85.7644L40.1556 85.5412C40.7679 85.82 41.5406 86.0737 42.4593 86.3049L42.3994 86.5428ZM46.3222 86.363C47.6298 86.5744 49.0453 86.7664 50.5544 86.9423L50.5261 87.1859C49.0142 87.0098 47.5949 86.8172 46.283 86.6051L46.3222 86.363ZM49.7993 87.7131C48.3165 87.5586 46.9475 87.3868 45.7107 87.1936L45.7485 86.9513C46.9802 87.1436 48.3449 87.315 49.8247 87.4691L49.7993 87.7131ZM53.9534 87.2979C54.7904 87.3767 55.6491 87.4518 56.5276 87.5237L56.5076 87.7682C55.6283 87.6962 54.7685 87.621 53.9304 87.5421L53.9534 87.2979ZM58.2097 87.6556C58.4938 87.677 58.7797 87.698 59.0674 87.7188L59.0497 87.9635C58.7618 87.9427 58.4756 87.9216 58.1913 87.9002L58.2097 87.6556ZM55.6025 88.2014C54.7497 88.143 53.9194 88.0816 53.1136 88.0166L53.1334 87.7721C53.938 87.837 54.7674 87.8984 55.6193 87.9567L55.6025 88.2014ZM60.779 87.8379C61.62 87.8942 62.4744 87.9484 63.341 88.0008L63.3261 88.2457C62.4592 88.1932 61.6042 88.139 60.7626 88.0826L60.779 87.8379ZM58.1078 88.3608C57.8272 88.3442 57.5486 88.3273 57.272 88.3101L57.2872 88.0653C57.5635 88.0825 57.8419 88.0993 58.1223 88.1159L58.1078 88.3608ZM66.751 88.195C68.1521 88.2705 69.5783 88.3423 71.0242 88.4119L71.0124 88.6569C69.5662 88.5873 68.1395 88.5154 66.7378 88.44L66.751 88.195ZM62.247 88.5821C61.4001 88.541 60.5669 88.4984 59.7489 88.4539L59.7622 88.2089C60.5797 88.2534 61.4124 88.296 62.2589 88.3371L62.247 88.5821ZM69.721 88.9007C68.3147 88.8468 66.9305 88.7914 65.5741 88.7334L65.5846 88.4883C66.9406 88.5463 68.3244 88.6017 69.7304 88.6556L69.721 88.9007ZM74.4401 88.5708C75.2914 88.6092 76.1479 88.6472 77.0085 88.6849L76.9977 88.9299C76.1371 88.8922 75.2805 88.8543 74.429 88.8158L74.4401 88.5708ZM78.7145 88.7591L79.5709 88.7961L79.5603 89.0411L78.7039 89.0042L78.7145 88.7591ZM75.5236 89.1138C74.6909 89.084 73.863 89.0543 73.041 89.0244L73.0499 88.7793C73.8719 88.8092 74.6997 88.8389 75.5323 88.8687L75.5236 89.1138ZM81.3204 88.8713C82.1599 88.9073 83.0016 88.9435 83.8446 88.9799L83.834 89.225C83.2809 89.2011 82.7283 89.1773 82.1766 89.1536L82.1691 89.3536C81.3355 89.3227 80.5038 89.2924 79.675 89.2624L79.6839 89.0173C80.2125 89.0364 80.7423 89.0557 81.273 89.0751L81.2818 88.8696L81.3204 88.8713ZM78.0199 89.203L77.1895 89.1733L77.1983 88.9282L78.0287 88.9579L78.0199 89.203ZM87.264 89.1297C88.6905 89.1932 90.1169 89.2583 91.5387 89.3259L91.527 89.5709C90.8996 89.5411 90.2712 89.5117 89.6423 89.4828L89.6349 89.6514C88.2534 89.5913 86.8691 89.5345 85.4864 89.4801L85.496 89.235C86.0826 89.2581 86.6694 89.2816 87.2562 89.3056L87.264 89.1297ZM94.9577 89.4946C95.8138 89.5386 96.6669 89.5837 97.516 89.6303L97.507 89.7948C97.6527 89.8031 97.7983 89.8113 97.9437 89.8197L97.9297 90.0646C97.7786 90.0559 97.6273 90.0473 97.4759 90.0388C97.3516 90.0317 97.2273 90.0248 97.1028 90.0179L97.1119 89.8539C96.5594 89.8239 96.0052 89.7945 95.4496 89.7656L95.4411 89.9281C94.6154 89.8849 93.7865 89.8433 92.9551 89.8033L92.9669 89.5583C93.6294 89.5902 94.2904 89.623 94.9494 89.657L94.9577 89.4946ZM99.2305 89.7267C99.5162 89.7432 99.8013 89.7598 100.086 89.7767L100.076 89.9473C100.645 89.9827 101.211 90.0193 101.775 90.0569L101.786 89.8801C102.649 89.9341 103.507 89.9901 104.357 90.0482L104.34 90.2929C103.594 90.2419 102.843 90.1926 102.086 90.1447L102.074 90.3229C101.25 90.2671 100.42 90.2138 99.585 90.1627L99.5954 89.9936C99.4692 89.9862 99.3428 89.9789 99.2164 89.9716L99.2305 89.7267ZM107.772 90.2972C109.223 90.4102 110.647 90.5308 112.038 90.6604L112.015 90.9046C111.204 90.829 110.381 90.7565 109.548 90.6867L109.527 90.9191C108.176 90.7916 106.795 90.6736 105.39 90.5639L105.409 90.3194C106.199 90.381 106.981 90.4453 107.755 90.5125L107.772 90.2972ZM115.445 91.004C116.306 91.0981 117.152 91.1964 117.98 91.2993L117.949 91.5427C117.123 91.44 116.278 91.3419 115.418 91.2479L115.445 91.004ZM115.291 91.5499C114.487 91.448 113.666 91.3507 112.831 91.2579L112.858 91.0141C113.694 91.1071 114.516 91.2045 115.322 91.3066L115.291 91.5499ZM119.696 91.5227C119.977 91.5611 120.257 91.6001 120.534 91.6397L120.499 91.8825C120.223 91.843 119.944 91.8041 119.663 91.7658L119.696 91.5227ZM117.76 91.8854C117.492 91.8463 117.222 91.8079 116.949 91.77L116.983 91.5271C117.256 91.565 117.527 91.6035 117.796 91.6427L117.76 91.8854ZM121.843 92.5616C121.057 92.4134 120.245 92.2723 119.41 92.1379L119.449 91.8957C120.286 92.0305 121.1 92.1719 121.889 92.3205L121.843 92.5616ZM122.236 91.8958C123.104 92.033 123.944 92.177 124.756 92.3283L124.711 92.5695C123.902 92.4186 123.063 92.275 122.198 92.1381L122.236 91.8958ZM129.08 94.4043C127.887 93.985 126.553 93.6024 125.096 93.2526L125.153 93.0141C126.617 93.3654 127.959 93.7502 129.161 94.1729L129.08 94.4043ZM128.123 93.0406C129.636 93.405 131.006 93.8051 132.211 94.2459L132.127 94.4762C130.933 94.0395 129.572 93.6419 128.066 93.2791L128.123 93.0406ZM134.117 97.1264C133.582 96.6239 132.907 96.1539 132.102 95.7145L132.219 95.4992C133.038 95.9458 133.731 96.4273 134.285 96.9477L134.117 97.1264ZM135.35 95.7245C136.184 96.2475 136.838 96.8185 137.286 97.4445L137.086 97.5871C136.663 96.9949 136.036 96.4442 135.22 95.9323L135.35 95.7245ZM135.287 98.7336C135.237 98.6152 135.18 98.4984 135.117 98.3829L135.332 98.2651C135.399 98.3875 135.459 98.5117 135.513 98.6378C135.577 98.79 135.615 98.9426 135.627 99.0955L135.382 99.1136C135.373 98.9898 135.342 98.8633 135.287 98.7336ZM137.946 99.055C137.966 99.2023 137.976 99.3517 137.976 99.5033C137.976 99.6486 137.963 99.7924 137.938 99.9347L137.697 99.8925C137.719 99.764 137.73 99.6343 137.73 99.5033C137.73 99.3625 137.721 99.224 137.703 99.0877L137.946 99.055ZM132.554 101.629C133.503 101.219 134.224 100.805 134.702 100.385L134.864 100.57C134.358 101.013 133.61 101.44 132.651 101.854L132.554 101.629ZM137.163 101.46C136.69 102.01 136.019 102.533 135.173 103.033L135.048 102.822C135.88 102.33 136.527 101.823 136.977 101.3L137.163 101.46ZM125.486 103.77C126.95 103.426 128.277 103.079 129.449 102.727L129.519 102.962C128.341 103.316 127.01 103.664 125.542 104.009L125.486 103.77ZM132.114 104.474C130.931 104.935 129.587 105.378 128.1 105.808L128.032 105.572C129.514 105.144 130.851 104.703 132.025 104.246L132.114 104.474ZM119.859 104.961C120.678 104.803 121.471 104.644 122.236 104.486L122.286 104.726C121.519 104.885 120.725 105.044 119.906 105.202L119.859 104.961ZM117.367 105.429C117.652 105.377 117.934 105.325 118.214 105.273L118.259 105.514C118.106 105.542 117.953 105.571 117.799 105.599C117.67 105.623 117.541 105.646 117.411 105.67L117.367 105.429ZM113.339 106.136C114.17 105.995 114.984 105.854 115.779 105.714L115.822 105.955C115.026 106.096 114.212 106.237 113.38 106.378L113.339 106.136ZM124.834 106.675C124.027 106.873 123.19 107.068 122.324 107.261L122.27 107.021C123.135 106.829 123.97 106.634 124.775 106.437L124.834 106.675ZM105.954 107.335C107.363 107.114 108.738 106.896 110.077 106.678L110.117 106.92C108.777 107.138 107.401 107.357 105.992 107.577L105.954 107.335ZM120.704 107.611C120.437 107.668 120.166 107.724 119.894 107.78L119.844 107.54C120.117 107.484 120.386 107.428 120.654 107.371L120.704 107.611ZM100.253 108.21C101.089 108.083 101.917 107.958 102.735 107.833L102.772 108.075C101.954 108.2 101.126 108.326 100.29 108.452L100.253 108.21ZM118.23 108.114C117.415 108.273 116.582 108.431 115.731 108.588L115.686 108.347C116.537 108.19 117.369 108.032 118.182 107.873L118.23 108.114ZM97.8211 108.576L98.6281 108.455L98.6646 108.698L97.8575 108.819L97.8211 108.576ZM93.7167 109.189C94.5484 109.065 95.374 108.942 96.1928 108.82L96.229 109.062C95.4102 109.185 94.5846 109.308 93.7528 109.432L93.7167 109.189ZM112.418 109.177C111.072 109.408 109.689 109.637 108.273 109.863L108.234 109.621C109.649 109.394 111.031 109.166 112.376 108.935L112.418 109.177ZM86.3539 110.286C87.7365 110.079 89.1078 109.875 90.4654 109.673L90.5015 109.915C89.1439 110.118 87.7727 110.322 86.3902 110.529L86.3539 110.286ZM104.897 110.392C104.085 110.516 103.265 110.64 102.437 110.763L102.4 110.521C103.229 110.397 104.049 110.273 104.859 110.149L104.897 110.392ZM100.768 111.01C100.488 111.051 100.207 111.092 99.9257 111.133L99.8904 110.89C100.172 110.849 100.453 110.808 100.732 110.767L100.768 111.01ZM80.6477 111.146C81.4699 111.021 82.2895 110.897 83.1059 110.774L83.1425 111.016C82.3261 111.14 81.5067 111.264 80.6846 111.389L80.6477 111.146ZM98.2353 111.377C97.4172 111.494 96.5924 111.612 95.7615 111.729L95.7272 111.486C96.558 111.369 97.3825 111.252 98.2004 111.134L98.2353 111.377ZM78.1934 111.522C78.4644 111.48 78.7351 111.439 79.0056 111.397L79.0428 111.64C78.7723 111.681 78.5016 111.723 78.2307 111.764L78.1934 111.522ZM74.114 112.156C74.9324 112.027 75.7495 111.9 76.565 111.773L76.6026 112.016C75.7873 112.142 74.9703 112.269 74.152 112.398L74.114 112.156ZM92.4069 112.198C91.0336 112.388 89.6464 112.579 88.2478 112.77L88.2146 112.527C89.6131 112.336 91.0001 112.145 92.3732 111.955L92.4069 112.198ZM66.7674 113.338C68.1267 113.114 69.4865 112.893 70.8447 112.675L70.8836 112.917C69.5257 113.135 68.1663 113.356 66.8074 113.58L66.7674 113.338ZM84.8907 113.228L82.3978 113.567L82.3647 113.324L84.8576 112.985L84.8907 113.228ZM80.7308 113.794L79.8949 113.908L79.8618 113.665L80.6977 113.551L80.7308 113.794ZM61.0586 114.305C61.8725 114.164 62.6877 114.024 63.5038 113.885L63.5448 114.127C62.7291 114.266 61.9142 114.405 61.1006 114.547L61.0586 114.305ZM78.219 114.137C77.3864 114.251 76.552 114.365 75.7164 114.48L75.6829 114.237C76.5187 114.122 77.3531 114.008 78.1858 113.894L78.219 114.137ZM59.3418 114.606L59.4327 114.59L59.4753 114.831C59.2048 114.879 58.9344 114.927 58.6643 114.975L58.6213 114.733C58.8613 114.691 59.1015 114.648 59.3418 114.606ZM72.3804 114.941C70.9897 115.135 69.5974 115.33 68.2059 115.528L68.1714 115.285C69.5632 115.087 70.9557 114.892 72.3465 114.698L72.3804 114.941ZM54.5456 115.474C55.3585 115.323 56.1741 115.173 56.9918 115.026L57.0354 115.267C56.2181 115.415 55.4029 115.564 54.5904 115.715L54.5456 115.474ZM64.8717 116.007C64.0377 116.128 63.2046 116.25 62.3729 116.373L62.337 116.13C63.1689 116.007 64.0023 115.885 64.8365 115.764L64.8717 116.007ZM47.2381 116.893C48.584 116.619 49.9418 116.35 51.3091 116.086L51.3556 116.327C49.989 116.591 48.632 116.859 47.287 117.133L47.2381 116.893ZM60.7012 116.622C60.423 116.663 60.1449 116.705 59.8671 116.747L59.8305 116.505C60.1084 116.463 60.3865 116.421 60.6649 116.379L60.7012 116.622ZM58.2028 117C57.3721 117.128 56.5436 117.256 55.718 117.386L55.6799 117.144C56.5059 117.014 57.3346 116.885 58.1656 116.758L58.2028 117ZM41.575 118.092C42.3857 117.913 43.2024 117.736 44.0245 117.561L44.0755 117.801C43.2541 117.976 42.438 118.153 41.6278 118.332L41.575 118.092ZM52.3736 117.921C50.9837 118.147 49.6038 118.378 48.2366 118.612L48.1951 118.37C49.5631 118.136 50.9436 117.905 52.3341 117.679L52.3736 117.921ZM39.1593 118.636C39.4256 118.575 39.6927 118.514 39.9604 118.453L40.0146 118.692C39.7471 118.753 39.4803 118.814 39.2142 118.875L39.1593 118.636ZM44.8979 119.198C44.0703 119.346 43.2482 119.497 42.4322 119.649L42.3872 119.408C43.2038 119.256 44.0264 119.105 44.8545 118.956L44.8979 119.198ZM35.1307 119.594C35.936 119.396 36.7495 119.199 37.5704 119.006L37.6267 119.245C36.8066 119.438 35.9939 119.634 35.1894 119.832L35.1307 119.594ZM40.7703 119.963C40.4906 120.017 40.2116 120.07 39.9334 120.124L39.8866 119.884C40.165 119.83 40.4442 119.776 40.7242 119.722L40.7703 119.963ZM38.2742 120.451C37.4496 120.616 36.6327 120.783 35.8242 120.952L35.774 120.712C36.5832 120.543 37.4008 120.376 38.2261 120.211L38.2742 120.451ZM27.93 121.503C29.2375 121.129 30.5757 120.763 31.9412 120.405L32.0034 120.642C30.6396 121 29.3031 121.366 27.9975 121.739L27.93 121.503ZM32.5039 121.671C31.1168 121.981 29.7588 122.299 28.4333 122.625L28.3748 122.386C29.702 122.06 31.0618 121.742 32.4503 121.431L32.5039 121.671ZM22.3916 123.203C23.1782 122.943 23.9799 122.687 24.7957 122.435L24.8682 122.67C24.0537 122.921 23.2535 123.177 22.4684 123.436L22.3916 123.203ZM25.1443 123.467C24.3277 123.686 23.526 123.908 22.74 124.133L22.6723 123.898C23.4598 123.672 24.263 123.449 25.0809 123.23L25.1443 123.467ZM20.0779 123.992C20.3298 123.903 20.5834 123.815 20.8387 123.727L20.9188 123.959C20.664 124.046 20.4109 124.135 20.1597 124.224L20.0779 123.992ZM21.0898 124.62C20.8189 124.701 20.55 124.784 20.2833 124.867L20.2105 124.632C20.4779 124.549 20.7473 124.467 21.0188 124.385L21.0898 124.62ZM16.1769 125.466C16.9315 125.16 17.707 124.86 18.5022 124.564L18.5877 124.794C17.7946 125.089 17.0213 125.389 16.2689 125.693L16.1769 125.466ZM18.7087 125.37C17.8815 125.641 17.077 125.918 16.2967 126.2L16.2133 125.969C16.9961 125.687 17.8029 125.409 18.6321 125.137L18.7087 125.37ZM9.44943 128.639C10.5912 128 11.8217 127.379 13.1327 126.777L13.2351 127C12.3085 127.426 11.4227 127.86 10.5808 128.304C11.3851 127.917 12.232 127.538 13.1188 127.168L13.2132 127.395C11.8418 127.967 10.5677 128.559 9.4009 129.172L9.28672 128.955C9.37374 128.909 9.46135 128.864 9.54954 128.818L9.44943 128.639ZM4.63532 131.899C5.25612 131.375 5.93352 130.862 6.66397 130.36L6.80283 130.563C6.67853 130.648 6.5558 130.734 6.43467 130.82L6.49051 130.902C5.75114 131.404 5.08089 131.92 4.48406 132.449L4.32132 132.265C4.43879 132.161 4.55901 132.058 4.68194 131.954L4.63532 131.899ZM2.84199 133.622C3.03173 133.412 3.23028 133.203 3.43744 132.996L3.61074 133.17C3.4928 133.288 3.37775 133.406 3.26563 133.525L3.33483 133.587C3.13739 133.807 2.95235 134.03 2.77997 134.255L2.58524 134.106C2.69182 133.967 2.80304 133.829 2.9188 133.691L2.84199 133.622ZM0.605874 137.105C0.903784 136.351 1.30799 135.619 1.81099 134.906L2.01139 135.048C1.89957 135.206 1.79283 135.365 1.69123 135.525L1.89968 135.633C1.50796 136.393 1.25463 137.179 1.1487 137.991L0.905473 137.959C1.01043 137.154 1.25475 136.377 1.62829 135.626C1.30998 136.14 1.04447 136.663 0.833978 137.195L0.605874 137.105ZM0.965539 144.387C0.332419 142.994 0.0185149 141.654 0 140.362L0.245264 140.359C0.263231 141.612 0.567783 142.919 1.18882 144.285L0.965539 144.387ZM1.48681 141.254C1.85769 142.4 2.49594 143.6 3.42659 144.858L3.22943 145.004C2.28662 143.73 1.63419 142.506 1.25344 141.33L1.48681 141.254ZM4.1956 149.116C3.6355 148.493 3.13442 147.88 2.69062 147.276L2.8883 147.131C3.32687 147.728 3.82275 148.335 4.37799 148.952L4.1956 149.116ZM5.65818 147.423C6.19852 147.966 6.78975 148.519 7.43343 149.082L7.27199 149.267C6.62443 148.7 6.02899 148.144 5.48426 147.596L5.65818 147.423ZM5.72011 150.693C5.61011 150.587 5.5018 150.481 5.39516 150.375L5.56806 150.201C5.67393 150.306 5.78149 150.411 5.89073 150.517C5.98443 150.608 6.07864 150.698 6.17336 150.787L6.00489 150.966C5.90945 150.876 5.81452 150.785 5.72011 150.693ZM8.79108 150.22C8.91012 150.316 9.03063 150.412 9.15264 150.509C9.25006 150.586 9.34788 150.663 9.44612 150.739L9.29594 150.933C9.19704 150.856 9.09854 150.779 9.00046 150.701C8.87787 150.604 8.75676 150.508 8.63713 150.411L8.79108 150.22ZM10.6442 151.628C11.2512 152.06 11.8722 152.474 12.5062 152.872L12.3759 153.08C11.7379 152.68 11.113 152.262 10.502 151.828L10.6442 151.628ZM9.01602 153.491C8.38519 153.021 7.77099 152.531 7.17452 152.019L7.33426 151.833C7.92632 152.341 8.53609 152.828 9.16248 153.294L9.01602 153.491ZM15.0934 154.365C16.1851 154.945 17.3087 155.481 18.4603 155.977L18.3633 156.202C17.2059 155.704 16.0763 155.165 14.9784 154.582L15.0934 154.365ZM96.1193 154.576L96.1916 154.81L96.1902 154.811L96.1886 154.811L96.1872 154.811L96.1861 154.812L96.1701 154.817L96.1065 154.837C96.0503 154.855 95.9665 154.881 95.8562 154.916L95.7832 154.682C95.7891 154.68 95.795 154.678 95.8007 154.676L95.7984 154.668C95.9043 154.638 95.9846 154.615 96.0384 154.599L96.0991 154.582L96.1143 154.577L96.115 154.577L96.116 154.577L96.1181 154.576L96.1193 154.576ZM15.0587 157.148C13.8741 156.569 12.7255 155.939 11.6181 155.255L11.7469 155.046C12.8472 155.725 13.9886 156.352 15.1665 156.928L15.0587 157.148ZM92.1476 155.634C93.0128 155.417 93.7503 155.225 94.3464 155.066L94.4096 155.303C94.3821 155.31 94.3543 155.318 94.3262 155.325L94.3405 155.374C93.7235 155.556 92.9616 155.775 92.0691 156.024L92.0034 155.787C92.0608 155.771 92.1177 155.755 92.1741 155.74L92.1476 155.634ZM85.6034 157.148C86.9291 156.865 88.153 156.59 89.2612 156.332L89.3169 156.57C89.2139 156.594 89.1099 156.619 89.0049 156.643L89.0549 156.835C87.8977 157.136 86.6198 157.457 85.2363 157.789L85.179 157.551C85.9282 157.371 86.6464 157.194 87.3311 157.022C86.7924 157.142 86.2332 157.264 85.6546 157.387L85.6034 157.148ZM21.2407 157.077C21.9399 157.331 22.6477 157.571 23.3632 157.798L23.2889 158.032C22.5703 157.804 21.8595 157.562 21.1571 157.307L21.2407 157.077ZM80.4625 158.176C81.2196 158.035 81.9563 157.893 82.671 157.751L82.7187 157.991C82.0032 158.133 81.2656 158.276 80.5076 158.417L80.4625 158.176ZM20.1396 159.26C19.3926 158.998 18.6557 158.721 17.9299 158.427L18.0219 158.2C18.7439 158.492 19.4772 158.768 20.2206 159.028L20.1396 159.26ZM24.7928 158.233C25.0313 158.303 25.2705 158.371 25.5106 158.437L25.445 158.674C25.204 158.607 24.9638 158.538 24.7244 158.469L24.7928 158.233ZM82.1874 158.497C81.4407 158.665 80.6711 158.834 79.8805 159.002L79.8294 158.762C80.6191 158.594 81.3878 158.426 82.1337 158.258L82.1874 158.497ZM78.2439 158.578C78.4903 158.535 78.7349 158.492 78.9776 158.448L79.021 158.69C78.7779 158.733 78.5331 158.777 78.2864 158.82L78.2439 158.578ZM26.9595 158.821C27.6804 159.003 28.4075 159.174 29.14 159.333L29.0877 159.573C28.3527 159.413 27.623 159.242 26.8994 159.059L26.9595 158.821ZM74.5577 159.191C75.3099 159.073 76.0492 158.953 76.7745 158.831L76.8151 159.073C76.089 159.195 75.3488 159.316 74.5957 159.434L74.5577 159.191ZM78.3498 159.322C78.0906 159.375 77.8294 159.428 77.5663 159.481L77.5179 159.24C77.7808 159.188 78.0417 159.134 78.3006 159.081L78.3498 159.322ZM22.3752 159.986C22.124 159.911 21.8738 159.833 21.6246 159.754L21.6987 159.521C21.9468 159.599 22.1959 159.676 22.4459 159.752L22.3752 159.986ZM76.0444 159.781C75.2852 159.928 74.5114 160.073 73.7244 160.216L73.6806 159.975C74.4667 159.832 75.2395 159.687 75.9978 159.54L76.0444 159.781ZM67.8819 160.119C69.1436 159.966 70.3823 159.803 71.5937 159.633L71.628 159.875C70.415 160.047 69.1747 160.21 67.9113 160.362L67.8819 160.119ZM32.0758 159.911C33.2974 160.126 34.5309 160.313 35.7732 160.474L35.7416 160.717C34.4959 160.556 33.2587 160.368 32.0332 160.152L32.0758 159.911ZM26.1714 160.992C25.4036 160.815 24.643 160.624 23.8903 160.42L23.9546 160.183C24.7041 160.387 25.4617 160.576 26.2265 160.753L26.1714 160.992ZM62.6617 160.672C63.4152 160.604 64.1631 160.531 64.9044 160.454L64.9298 160.698C64.1874 160.775 63.4385 160.848 62.6838 160.916L62.6617 160.672ZM70.6305 160.752C69.3661 160.961 68.0739 161.162 66.7584 161.351L66.7234 161.108C68.0372 160.919 69.3277 160.719 70.5905 160.51L70.6305 160.752ZM60.429 160.859C60.6788 160.84 60.928 160.82 61.1766 160.8L61.1966 161.044C60.9475 161.065 60.698 161.084 60.4478 161.104L60.429 160.859ZM38.7479 160.81C39.4916 160.882 40.2375 160.946 40.9849 161.001L40.9668 161.246C40.2176 161.19 39.4699 161.127 38.7242 161.055L38.7479 160.81ZM56.6927 161.102C57.4429 161.062 58.1897 161.017 58.9324 160.967L58.9489 161.212C58.205 161.262 57.457 161.307 56.7056 161.347L56.6927 161.102ZM42.4779 161.1C42.7268 161.115 42.9758 161.129 43.2249 161.142L43.212 161.387C42.9624 161.374 42.7128 161.36 42.4634 161.345L42.4779 161.1ZM44.7202 161.211C45.4683 161.24 46.2167 161.261 46.9649 161.276L46.9601 161.521C46.2104 161.507 45.4604 161.485 44.7107 161.456L44.7202 161.211ZM49.9592 161.299C51.2111 161.293 52.4597 161.269 53.7018 161.229L53.7097 161.475C52.4654 161.515 51.2146 161.538 49.9602 161.544L49.9592 161.299ZM33.1258 162.226C31.8195 162.058 30.5251 161.858 29.2465 161.625L29.2905 161.384C30.5647 161.616 31.8549 161.815 33.1573 161.983L33.1258 162.226ZM63.6458 161.772C62.8733 161.869 62.0943 161.962 61.3098 162.05L61.2825 161.806C62.0658 161.719 62.8437 161.626 63.6151 161.528L63.6458 161.772ZM59.7504 162.218C59.4914 162.244 59.2319 162.27 58.9718 162.296L58.9479 162.052C59.2076 162.026 59.4668 162 59.7254 161.974L59.7504 162.218ZM57.4056 162.441C56.6282 162.509 55.847 162.572 55.0625 162.628L55.0449 162.383C55.828 162.327 56.6081 162.265 57.3842 162.197L57.4056 162.441ZM38.5965 162.756C37.8106 162.704 37.0271 162.642 36.2467 162.57L36.2692 162.326C37.0474 162.397 37.8289 162.459 38.6127 162.511L38.5965 162.756ZM51.9289 162.819C50.6263 162.884 49.3181 162.931 48.0078 162.956L48.003 162.711C49.3107 162.685 50.6165 162.639 51.9167 162.574L51.9289 162.819ZM40.946 162.883C40.6844 162.872 40.4229 162.86 40.1616 162.847L40.1739 162.602C40.4346 162.615 40.6954 162.627 40.9565 162.638L40.946 162.883ZM44.8687 162.978C44.0838 162.973 43.2992 162.96 42.5155 162.938L42.5223 162.693C43.3042 162.714 44.0871 162.728 44.8703 162.733L44.8687 162.978Z" fill="white"/>
<path d="M95.7046 153.632L79.392 173.908L100.55 163.889L101.339 163.488L176.327 125.369L83.3938 170.676L96.4219 154.864L176.327 125.369L98.9921 152.602L98.0699 152.927L95.7046 153.632Z" fill="white"/>
<path d="M176.327 125.369L83.1443 140.444L96.7697 149.557L97.1359 149.56L176.327 125.369L96.3578 147.102L84.9826 141.278L176.327 125.369Z" fill="white"/>
<path d="M96.7697 149.557L98.0699 152.927L98.9921 152.602L97.1359 149.56L96.7697 149.557Z" fill="white"/>
<path d="M100.55 163.889L103.134 166.364L176.327 125.369L103.127 165.547L101.339 163.488L100.55 163.889Z" fill="white"/>
<path d="M84.9826 141.278L96.3578 147.102L176.327 125.369L84.9826 141.278Z" fill="white"/>
<path d="M176.327 125.369L96.4219 154.864L83.3938 170.676L176.327 125.369Z" fill="white"/>
<path d="M176.327 125.369L101.339 163.488L103.127 165.547L176.327 125.369Z" fill="white"/>
<path fill-rule="evenodd" clip-rule="evenodd" d="M175.582 125.593L175.567 125.596L175.534 125.394L176.309 125.269L176.311 125.269L176.377 125.459L176.376 125.459L176.373 125.46L175.767 125.8L175.753 125.776L175.748 125.778L175.743 125.768L175.597 125.839L175.508 125.655L175.633 125.594L175.583 125.603L175.582 125.593ZM174.014 125.847L172.461 126.098L172.428 125.897L173.981 125.645L174.014 125.847ZM173.026 126.372L173.022 126.374L172.968 126.176L174.301 125.814L174.322 125.893L174.343 125.96L174.36 125.954L174.428 126.147L174.354 126.173L174.365 126.203L173.033 126.694L172.962 126.502L173.055 126.468L173.026 126.372ZM168.561 126.618L171.742 126.064L171.777 126.265L166.449 127.193L166.428 127.074L163.142 127.606L163.11 127.404L168.545 126.525L168.561 126.618ZM173.258 127.044L173.249 127.049L173.156 126.867L174.406 126.231L174.436 126.291L174.448 126.284L174.546 126.463L174.538 126.468L174.547 126.483L173.327 127.167L173.258 127.044ZM169.69 127.279L165.025 128.547L164.971 128.35L169.636 127.082L169.69 127.279ZM169.758 127.483L165.138 128.894L165.078 128.699L169.698 127.288L169.758 127.483ZM153.473 129.246L158.802 128.318L158.837 128.519L153.508 129.447L153.473 129.246ZM155.377 128.862L149.942 129.741L149.909 129.54L155.345 128.66L155.377 128.862ZM169.667 127.823L169.916 127.735L169.848 127.542L165.337 129.131L165.395 129.296L164.972 129.452L165.042 129.644L169.704 127.923L169.667 127.823ZM166.214 130.186L171.636 127.543L171.725 127.727L170.071 128.533L170.124 128.637L165.75 130.861L165.657 130.678L166.296 130.354L166.214 130.186ZM146.059 130.369L144.506 130.621L144.473 130.419L146.026 130.168L146.059 130.369ZM148.145 130.174L149.667 129.909L149.702 130.11L148.18 130.375L148.145 130.174ZM142.953 130.872L141.4 131.123L141.367 130.921L142.92 130.67L142.953 130.872ZM145.1 130.704L146.623 130.439L146.658 130.64L145.135 130.905L145.1 130.704ZM170.248 128.822L170.276 128.807L170.178 128.628L165.908 130.972L165.957 131.061L165.908 131.088L166.008 131.266L170.278 128.875L170.248 128.822ZM137.517 131.751L132.082 132.631L132.049 132.429L137.485 131.549L137.517 131.751ZM135.966 132.295L141.294 131.367L141.329 131.568L136.001 132.496L135.966 132.295ZM158.361 130.358L153.696 131.625L153.642 131.428L158.307 130.161L158.361 130.358ZM158.539 130.91L153.919 132.321L153.86 132.126L158.479 130.715L158.539 130.91ZM124.316 133.887L118.881 134.766L118.848 134.564L124.284 133.685L124.316 133.887ZM123.025 134.549L128.354 133.621L128.389 133.822L123.06 134.75L123.025 134.549ZM158.961 131.593L154.449 133.182L154.381 132.989L158.893 131.4L158.961 131.593ZM150.364 132.531L149.031 132.893L148.977 132.696L150.31 132.334L150.364 132.531ZM114.998 135.394L113.445 135.646L113.412 135.444L114.965 135.192L114.998 135.394ZM158.384 132.102L153.723 133.822L153.652 133.63L158.313 131.91L158.384 132.102ZM111.892 135.897L110.339 136.148L110.306 135.946L111.859 135.695L111.892 135.897ZM117.697 135.477L119.219 135.211L119.254 135.413L117.732 135.678L117.697 135.477ZM147.698 133.255L146.365 133.618L146.312 133.42L147.645 133.058L147.698 133.255ZM114.652 136.007L116.174 135.742L116.209 135.943L114.687 136.208L114.652 136.007ZM106.456 136.776L101.021 137.655L100.988 137.454L106.424 136.574L106.456 136.776ZM150.62 133.329L149.3 133.732L149.24 133.537L150.56 133.134L150.62 133.329ZM105.518 137.598L110.846 136.67L110.881 136.871L105.553 137.799L105.518 137.598ZM143.033 134.523L138.368 135.791L138.315 135.594L142.98 134.326L143.033 134.523ZM147.98 134.135L146.66 134.539L146.6 134.343L147.92 133.94L147.98 134.135ZM93.2554 138.912L87.8198 139.791L87.7871 139.589L93.2228 138.71L93.2554 138.912ZM151.227 134.316L149.938 134.77L149.87 134.578L151.159 134.124L151.227 134.316ZM159.501 134.037L155.127 136.261L155.034 136.079L159.408 133.855L159.501 134.037ZM153.049 136.604L158.47 133.961L158.56 134.145L153.138 136.788L153.049 136.604ZM92.5771 139.851L97.9055 138.923L97.9406 139.125L92.6122 140.053L92.5771 139.851ZM143.361 135.547L138.741 136.958L138.681 136.762L143.301 135.351L143.361 135.547ZM150.393 135.051L149.061 135.543L148.991 135.351L150.322 134.859L150.393 135.051ZM148.649 135.224L147.36 135.678L147.292 135.485L148.581 135.031L148.649 135.224ZM83.417 140.503L83.9372 140.419L83.9045 140.217L82.8716 140.384L83.4281 140.757L83.5418 140.587L83.417 140.503ZM159.829 134.541L159.906 134.499L159.808 134.32L155.538 136.664L155.636 136.841L155.539 136.895L155.639 137.074L159.909 134.682L159.829 134.541ZM147.73 136.034L146.398 136.526L146.327 136.334L147.659 135.842L147.73 136.034ZM87.2487 140.779L88.7711 140.514L88.8062 140.716L87.2838 140.981L87.2487 140.779ZM84.223 141.042L84.9043 141.498L84.7907 141.668L84.1094 141.212L84.223 141.042ZM131.704 137.602L127.039 138.87L126.986 138.672L131.651 137.405L131.704 137.602ZM85.7263 141.044L85.7614 141.246L85.3012 141.326L85.3136 141.332L85.2204 141.514L84.6641 141.229L85.7263 141.044ZM144.138 136.813L139.627 138.401L139.559 138.209L144.07 136.62L144.138 136.813ZM143.069 137.755L138.407 139.475L138.337 139.284L142.998 137.563L143.069 137.755ZM88.633 143.261L86.6423 142.242L86.7355 142.06L88.7262 143.08L88.633 143.261ZM132.142 138.974L127.522 140.385L127.463 140.189L132.082 138.778L132.142 138.974ZM123.707 139.775L122.375 140.137L122.321 139.94L123.654 139.578L123.707 139.775ZM86.6075 142.637L88.9919 144.232L88.8783 144.402L86.4938 142.807L86.6075 142.637ZM152.002 137.849L150.753 138.484L150.66 138.302L151.91 137.667L152.002 137.849ZM121.042 140.5L119.709 140.862L119.655 140.664L120.988 140.302L121.042 140.5ZM147.628 139.247L149.177 138.492L149.266 138.676L147.717 139.431L147.628 139.247ZM152.586 138.517L151.366 139.186L151.268 139.007L152.488 138.338L152.586 138.517ZM152.589 138.782L151.369 139.465L151.269 139.287L152.489 138.604L152.589 138.782ZM149.503 139.12L148.253 139.755L148.16 139.573L149.41 138.938L149.503 139.12ZM116.377 141.767L111.712 143.035L111.658 142.838L116.323 141.57L116.377 141.767ZM133.182 140.671L128.671 142.259L128.603 142.067L133.114 140.478L133.182 140.671ZM124.223 141.393L122.903 141.796L122.843 141.6L124.163 141.197L124.223 141.393ZM150.146 139.856L148.926 140.526L148.828 140.346L150.048 139.677L150.146 139.856ZM144.53 140.757L146.079 140.002L146.168 140.186L144.62 140.941L144.53 140.757ZM121.583 142.199L120.263 142.602L120.203 142.407L121.523 142.003L121.583 142.199ZM93.4675 145.737L91.4768 144.717L91.57 144.536L93.5606 145.555L93.4675 145.737ZM150.149 140.148L148.93 140.832L148.83 140.653L150.05 139.97L150.149 140.148ZM131.749 141.933L127.088 143.654L127.017 143.462L131.678 141.741L131.749 141.933ZM145.129 141.343L140.754 143.567L140.662 143.385L145.036 141.161L145.129 141.343ZM116.964 143.61L112.344 145.021L112.284 144.826L116.904 143.415L116.964 143.61ZM105.048 144.846L100.383 146.114L100.329 145.916L104.994 144.649L105.048 144.846ZM125.449 143.394L124.16 143.848L124.092 143.655L125.381 143.201L125.449 143.394ZM145.876 142.2L141.606 144.543L141.508 144.364L145.778 142.021L145.876 142.2ZM135.237 145.288L140.658 142.645L140.747 142.829L135.326 145.472L135.237 145.288ZM95.4581 146.756L94.8894 146.465L94.9825 146.283L95.5513 146.574L95.4581 146.756ZM92.3983 146.51L94.7827 148.105L94.6691 148.275L92.2846 146.68L92.3983 146.51ZM122.871 144.302L121.582 144.756L121.514 144.563L122.803 144.109L122.871 144.302ZM145.88 142.54L141.61 144.931L141.51 144.753L145.78 142.361L145.88 142.54ZM96.0269 147.047L96.12 146.865L96.3692 146.993L96.9974 146.822L97.051 147.019L96.3465 147.211L96.0269 147.047ZM123.758 144.883L122.426 145.374L122.356 145.182L123.687 144.691L123.758 144.883ZM118.36 145.891L113.849 147.479L113.781 147.286L118.292 145.698L118.36 145.891ZM105.745 147.037L101.125 148.448L101.066 148.253L105.685 146.842L105.745 147.037ZM121.095 145.866L119.763 146.357L119.692 146.166L121.024 145.674L121.095 145.866ZM116.434 147.586L111.772 149.307L111.702 149.115L116.363 147.395L116.434 147.586ZM96.8254 149.471L96.8256 149.455L96.8896 149.455L96.8885 149.581L96.8975 149.604L96.8882 149.608L96.8878 149.66L96.8237 149.659L96.8239 149.632L96.778 149.65L96.7779 149.659L96.7687 149.659L96.7688 149.654L96.7068 149.678L96.686 149.624L96.3722 149.414L96.4859 149.244L96.8254 149.471ZM96.7789 149.553L96.8248 149.535L96.8254 149.473L96.779 149.543L96.7789 149.553ZM97.8257 149.456L97.1658 149.658L97.1628 149.648L97.0951 149.689L97.0487 149.613L97.0899 149.588L97.0911 149.457L97.1094 149.458L97.1094 149.461L97.766 149.261L97.8257 149.456ZM97.1093 149.473L97.1083 149.577L97.1267 149.566L97.127 149.531L97.1093 149.473ZM97.0434 149.661L96.9793 149.661L96.9812 149.456L97.0453 149.457L97.0434 149.661ZM134.505 146.743L130.131 148.967L130.038 148.785L134.413 146.561L134.505 146.743ZM97.6519 150.602L97.3271 150.07L97.5016 149.963L97.8264 150.496L97.6519 150.602ZM97.0969 150.689L96.8694 150.099L97.0601 150.025L97.2876 150.615L97.0969 150.689ZM107.404 149.749L102.893 151.337L102.825 151.144L107.336 149.556L107.404 149.749ZM135.506 147.892L131.236 150.235L131.138 150.056L135.408 147.712L135.506 147.892ZM135.511 148.347L131.241 150.739L131.141 150.56L135.411 148.169L135.511 148.347ZM98.4408 151.895L98.116 151.363L98.2905 151.256L98.6153 151.789L98.4408 151.895ZM122.071 151.707L127.492 149.064L127.582 149.247L122.161 151.89L122.071 151.707ZM97.6495 152.121L97.4219 151.531L97.6126 151.458L97.8402 152.048L97.6495 152.121ZM105.114 151.765L100.453 153.485L100.382 153.293L105.043 151.573L105.114 151.765ZM98.7657 152.427L98.6729 152.275L98.8474 152.169L98.9402 152.321L98.7657 152.427ZM99.6705 152.472L99.003 152.707L98.9708 152.615L98.9281 152.641L98.9569 152.723L98.9108 152.739L98.8429 152.547L98.889 152.53L98.8979 152.555L98.9405 152.529L98.9351 152.514L99.0076 152.489L99.033 152.473L99.0363 152.478L99.6026 152.279L99.6705 152.472ZM97.877 152.711L97.812 152.543L98.0027 152.469L98.0677 152.638L97.877 152.711ZM98.7955 152.78L98.6341 152.837L98.5662 152.644L98.7276 152.587L98.7955 152.78ZM127.007 150.555L125.757 151.191L125.664 151.008L126.914 150.373L127.007 150.555ZM98.4036 152.918L98.2422 152.975L98.1743 152.782L98.3357 152.725L98.4036 152.918ZM97.9745 152.964L97.942 152.88L97.9863 152.863L97.9816 152.847L98.0383 152.83L98.059 152.823L98.0627 152.833L98.1327 152.806L98.1652 152.89L98.0927 152.918L98.1269 153.015L98.0991 153.025L98.0399 153.043L98.0121 152.949L97.9745 152.964ZM97.272 153.058L97.6859 152.935L97.7443 153.131L97.3304 153.254L97.272 153.058ZM96.2668 153.358L96.6807 153.234L96.7391 153.43L96.3251 153.554L96.2668 153.358ZM95.8529 153.481L95.9711 153.446L96.0295 153.642L95.9112 153.677L95.8529 153.481ZM95.7346 153.516L95.793 153.712L95.7643 153.721L95.3765 154.203L95.2172 154.075L95.645 153.543L95.7346 153.516ZM124.507 151.826L123.257 152.461L123.165 152.279L124.414 151.644L124.507 151.826ZM128.186 151.909L126.966 152.579L126.868 152.4L128.088 151.73L128.186 151.909ZM96.4832 154.95L97.1232 154.714L97.0524 154.522L96.3606 154.778L96.0173 155.194L96.1751 155.324L96.4832 154.95ZM128.192 152.447L126.972 153.13L126.872 152.952L128.092 152.269L128.192 152.447ZM116.65 154.349L118.199 153.594L118.289 153.778L116.74 154.533L116.65 154.349ZM125.746 153.249L124.526 153.918L124.428 153.739L125.648 153.069L125.746 153.249ZM120.133 154.05L115.758 156.273L115.666 156.091L120.04 153.867L120.133 154.05ZM95.5237 156.115L94.8723 156.906L94.7145 156.776L95.3659 155.985L95.5237 156.115ZM125.752 153.813L124.532 154.497L124.432 154.318L125.652 153.635L125.752 153.813ZM90.3234 160.157L93.1781 156.609L93.3374 156.737L90.4827 160.286L90.3234 160.157ZM113.552 155.86L115.101 155.105L115.191 155.288L113.642 156.043L113.552 155.86ZM121.476 155.592L117.206 157.936L117.108 157.757L121.378 155.413L121.476 155.592ZM121.482 156.205L117.213 158.596L117.113 158.418L121.382 156.026L121.482 156.205ZM93.2437 158.882L90.9638 161.649L90.8061 161.519L93.086 158.752L93.2437 158.882ZM104.259 160.39L109.68 157.747L109.77 157.931L104.349 160.574L104.259 160.39ZM109.509 159.45L105.135 161.673L105.043 161.491L109.417 159.268L109.509 159.45ZM111.107 161.284L106.837 163.628L106.738 163.449L111.008 161.105L111.107 161.284ZM111.113 162.012L106.844 164.404L106.744 164.225L111.013 161.834L111.113 162.012ZM102.011 163.262L101.366 163.589L101.354 163.566L101.32 163.596L101.327 163.609L101.287 163.629L101.195 163.447L101.234 163.427L101.288 163.533L101.322 163.503L101.273 163.407L101.918 163.079L102.011 163.262ZM101.188 163.68L101.05 163.75L100.958 163.568L101.096 163.497L101.188 163.68ZM100.853 163.85L100.715 163.92L100.622 163.738L100.76 163.668L100.853 163.85ZM100.616 163.971L100.596 163.981L100.593 163.974L100.591 163.976L100.594 163.982L100.579 163.989L100.544 164.025L100.53 164.012L100.065 164.232L99.9775 164.048L100.506 163.797L100.524 163.788L100.566 163.873L100.621 163.816L100.685 163.878L100.609 163.957L100.616 163.971ZM101.843 164.224L101.531 163.864L101.685 163.73L101.998 164.09L101.843 164.224ZM91.0934 166.809L96.5145 164.166L96.6041 164.35L91.183 166.993L91.0934 166.809ZM83.3906 168.775L86.2453 165.226L86.4045 165.355L83.5498 168.903L83.3906 168.775ZM101.319 164.768L100.867 164.335L101.008 164.187L101.461 164.62L101.319 164.768ZM99.007 164.733L97.9491 165.234L97.8616 165.049L98.9195 164.548L99.007 164.733ZM87.7068 165.602L85.4269 168.369L85.2691 168.24L87.549 165.472L87.7068 165.602ZM102.603 165.1L102.29 164.739L102.445 164.605L102.758 164.965L102.603 165.1ZM102.417 165.819L101.965 165.386L102.107 165.239L102.559 165.672L102.417 165.819ZM103.787 165.302L103.104 165.677L103.006 165.563L103.094 165.486L103.078 165.458L103.688 165.123L103.787 165.302ZM102.916 165.46L102.827 165.357L102.981 165.223L103.07 165.326L102.916 165.46ZM95.3044 166.486L91.6017 168.24L91.5142 168.055L95.2169 166.302L95.3044 166.486ZM102.87 166.253L102.74 166.129L102.882 165.981L103.011 166.105L102.87 166.253ZM103.794 166.112L103.118 166.49L102.999 166.376L103.088 166.283L103.084 166.275L103.109 166.261L103.14 166.229L103.15 166.238L103.694 165.934L103.794 166.112ZM85.6723 169.452L87.2212 168.697L87.3108 168.88L85.7619 169.636L85.6723 169.452ZM83.7717 170.378L83.7984 170.346L83.6406 170.216L83.3149 170.611L83.4386 170.768L84.213 170.391L84.1235 170.207L83.7717 170.378ZM86.3122 170.744L82.6095 172.497L82.522 172.313L86.2247 170.559L86.3122 170.744ZM80.5358 172.323L81.3515 171.309L81.5107 171.437L80.6951 172.451L80.5358 172.323ZM79.3124 173.844L79.7202 173.337L79.8795 173.465L79.7509 173.625L79.8772 173.565L79.9647 173.75L79.4358 174L79.3124 173.844Z" fill="white"/>
<path d="M43.7287 83.4574C43.7287 83.5515 43.5761 83.6277 43.388 83.6277C43.1998 83.6277 43.0473 83.5515 43.0473 83.4574C43.0473 83.3633 43.1998 83.287 43.388 83.287C43.5761 83.287 43.7287 83.3633 43.7287 83.4574Z" fill="white"/>
<path d="M90.2388 157.75C90.2075 157.661 90.326 157.539 90.5034 157.476C90.6809 157.413 90.8501 157.435 90.8813 157.523C90.9126 157.612 90.7941 157.735 90.6167 157.797C90.4392 157.86 90.27 157.839 90.2388 157.75Z" fill="white"/>
<path d="M76.4905 159.986C76.4592 159.898 76.5777 159.775 76.7552 159.712C76.9326 159.65 77.1018 159.671 77.1331 159.76C77.1644 159.848 77.0459 159.971 76.8684 160.034C76.691 160.096 76.5218 160.075 76.4905 159.986Z" fill="white"/>
<path d="M45.7728 85.6718C45.7728 85.8599 45.6202 86.0125 45.4321 86.0125C45.2439 86.0125 45.0914 85.8599 45.0914 85.6718C45.0914 85.4836 45.2439 85.3311 45.4321 85.3311C45.6202 85.3311 45.7728 85.4836 45.7728 85.6718Z" fill="white"/>
<path d="M87.5747 156.341C87.5121 156.164 87.6053 155.969 87.7827 155.907C87.9602 155.844 88.1547 155.937 88.2173 156.115C88.2799 156.292 88.1867 156.487 88.0093 156.549C87.8318 156.612 87.6373 156.519 87.5747 156.341Z" fill="white"/>
<path d="M84.7234 159.466C84.6609 159.288 84.754 159.094 84.9315 159.031C85.1089 158.968 85.3035 159.062 85.366 159.239C85.4286 159.417 85.3355 159.611 85.158 159.674C84.9806 159.736 84.786 159.643 84.7234 159.466Z" fill="white"/>
<path d="M65.5321 87.7159C65.5321 87.904 65.3796 88.0565 65.1914 88.0565C65.0033 88.0565 64.8508 87.904 64.8508 87.7159C64.8508 87.5277 65.0033 87.3752 65.1914 87.3752C65.3796 87.3752 65.5321 87.5277 65.5321 87.7159Z" fill="white"/>
<path d="M38.2778 84.9904C38.2778 85.1786 38.1253 85.3311 37.9371 85.3311C37.749 85.3311 37.5965 85.1786 37.5965 84.9904C37.5965 84.8023 37.749 84.6498 37.9371 84.6498C38.1253 84.6498 38.2778 84.8023 38.2778 84.9904Z" fill="white"/>
<path d="M94.8698 154.492C94.8072 154.314 94.9004 154.12 95.0778 154.057C95.2552 153.995 95.4498 154.088 95.5124 154.265C95.5749 154.443 95.4818 154.637 95.3044 154.7C95.1269 154.762 94.9323 154.669 94.8698 154.492Z" fill="white"/>
<path d="M80.6353 158.103C80.5727 157.925 80.6659 157.731 80.8433 157.668C81.0208 157.606 81.2153 157.699 81.2779 157.876C81.3404 158.054 81.2473 158.248 81.0699 158.311C80.8924 158.373 80.6979 158.28 80.6353 158.103Z" fill="white"/>
<path d="M41.285 87.3218C41.228 87.4405 40.9893 87.4443 40.7518 87.3303C40.5144 87.2162 40.3681 87.0275 40.4251 86.9088C40.4822 86.7901 40.7209 86.7863 40.9583 86.9003C41.1958 87.0144 41.342 87.2031 41.285 87.3218Z" fill="white"/>
<path d="M91.2585 153.293C91.2728 153.162 91.4967 153.079 91.7585 153.108C92.0204 153.136 92.2211 153.266 92.2068 153.396C92.1925 153.527 91.9686 153.61 91.7067 153.582C91.4449 153.553 91.2442 153.424 91.2585 153.293Z" fill="white"/>
<path d="M38.9592 84.3091C38.9592 84.4972 38.8066 84.6498 38.6185 84.6498C38.4303 84.6498 38.2778 84.4972 38.2778 84.3091C38.2778 84.1209 38.4303 83.9684 38.6185 83.9684C38.8066 83.9684 38.9592 84.1209 38.9592 84.3091Z" fill="white"/>
<path d="M41.0032 84.9904C41.0032 85.1786 40.8507 85.3311 40.6626 85.3311C40.4744 85.3311 40.3219 85.1786 40.3219 84.9904C40.3219 84.8023 40.4744 84.6498 40.6626 84.6498C40.8507 84.6498 41.0032 84.8023 41.0032 84.9904Z" fill="white"/>
<path d="M92.2994 155.398C92.2368 155.22 92.33 155.026 92.5074 154.963C92.6848 154.901 92.8794 154.994 92.942 155.171C93.0045 155.349 92.9114 155.543 92.734 155.606C92.5565 155.668 92.3619 155.575 92.2994 155.398Z" fill="white"/>
<path d="M39.4532 85.6718C39.4532 85.5871 39.3845 85.5185 39.2999 85.5185C39.2152 85.5185 39.1466 85.5871 39.1466 85.6718C39.1466 85.7565 39.2152 85.8251 39.2999 85.8251C39.3845 85.8251 39.4532 85.7565 39.4532 85.6718Z" fill="white"/>
<path d="M93.5347 154.24C93.5628 154.32 93.6504 154.362 93.7302 154.334C93.8101 154.305 93.852 154.218 93.8239 154.138C93.7957 154.058 93.7081 154.016 93.6283 154.044C93.5484 154.073 93.5065 154.16 93.5347 154.24Z" fill="white"/>
<path d="M83.2984 156.439C83.3266 156.519 83.4141 156.561 83.494 156.532C83.5738 156.504 83.6157 156.417 83.5876 156.337C83.5594 156.257 83.4719 156.215 83.392 156.243C83.3122 156.271 83.2703 156.359 83.2984 156.439Z" fill="white"/>
<path d="M77.1662 158.483C77.1944 158.563 77.2819 158.605 77.3618 158.577C77.4416 158.548 77.4835 158.461 77.4554 158.381C77.4272 158.301 77.3397 158.259 77.2598 158.287C77.18 158.316 77.1381 158.403 77.1662 158.483Z" fill="white"/>
<path d="M37.2217 86.1658C37.2217 86.0811 37.1531 86.0125 37.0684 86.0125C36.9837 86.0125 36.9151 86.0811 36.9151 86.1658C36.9151 86.2505 36.9837 86.3191 37.0684 86.3191C37.1531 86.3191 37.2217 86.2505 37.2217 86.1658Z" fill="white"/>
<path d="M95.475 153.032C95.5031 153.112 95.5907 153.154 95.6705 153.126C95.7504 153.098 95.7923 153.01 95.7641 152.93C95.736 152.85 95.6484 152.808 95.5686 152.837C95.4887 152.865 95.4468 152.952 95.475 153.032Z" fill="white"/>
<path d="M46.0794 90.2539C46.0794 90.1693 46.0107 90.1006 45.9261 90.1006C45.8414 90.1006 45.7728 90.1693 45.7728 90.2539C45.7728 90.3386 45.8414 90.4072 45.9261 90.4072C46.0107 90.4072 46.0794 90.3386 46.0794 90.2539Z" fill="white"/>
<path d="M53.7276 88.9679C53.7276 88.8409 53.6246 88.7379 53.4976 88.7379C53.3706 88.7379 53.2677 88.8409 53.2677 88.9679C53.2677 89.0949 53.3706 89.1978 53.4976 89.1978C53.6246 89.1978 53.7276 89.0949 53.7276 88.9679Z" fill="white"/>
<path d="M68.0361 88.2865C68.0361 88.1595 67.9332 88.0565 67.8062 88.0565C67.6792 88.0565 67.5762 88.1595 67.5762 88.2865C67.5762 88.4135 67.6792 88.5164 67.8062 88.5164C67.9332 88.5164 68.0361 88.4135 68.0361 88.2865Z" fill="white"/>
<path d="M55.6184 89.5726C55.6184 89.4879 55.5497 89.4193 55.4651 89.4193C55.3804 89.4193 55.3118 89.4879 55.3118 89.5726C55.3118 89.6572 55.3804 89.7259 55.4651 89.7259C55.5497 89.7259 55.6184 89.6572 55.6184 89.5726Z" fill="white"/>
<path d="M46.7607 85.4844C46.7607 85.3998 46.6921 85.3311 46.6074 85.3311C46.5227 85.3311 46.4541 85.3998 46.4541 85.4844C46.4541 85.5691 46.5227 85.6377 46.6074 85.6377C46.6921 85.6377 46.7607 85.5691 46.7607 85.4844Z" fill="white"/>
<path d="M86.7052 156.846C86.7334 156.926 86.8209 156.968 86.9008 156.94C86.9806 156.912 87.0225 156.824 86.9944 156.744C86.9662 156.665 86.8787 156.623 86.7988 156.651C86.719 156.679 86.6771 156.767 86.7052 156.846Z" fill="white"/>
<path d="M89.4306 158.483C89.4588 158.563 89.5464 158.605 89.6262 158.577C89.7061 158.548 89.748 158.461 89.7198 158.381C89.6917 158.301 89.6041 158.259 89.5243 158.287C89.4444 158.316 89.4025 158.403 89.4306 158.483Z" fill="white"/>
<path d="M68.5642 86.8471C68.5642 86.7625 68.4955 86.6938 68.4109 86.6938C68.3262 86.6938 68.2576 86.7625 68.2576 86.8471C68.2576 86.9318 68.3262 87.0005 68.4109 87.0005C68.4955 87.0005 68.5642 86.9318 68.5642 86.8471Z" fill="white"/>
<path d="M81.51 88.8912C81.51 88.8065 81.4413 88.7379 81.3567 88.7379C81.272 88.7379 81.2034 88.8065 81.2034 88.8912C81.2034 88.9759 81.272 89.0445 81.3567 89.0445C81.4413 89.0445 81.51 88.9759 81.51 88.8912Z" fill="white"/>
<path d="M72.6523 89.5726C72.6523 89.4879 72.5837 89.4193 72.499 89.4193C72.4143 89.4193 72.3457 89.4879 72.3457 89.5726C72.3457 89.6572 72.4143 89.7259 72.499 89.7259C72.5837 89.7259 72.6523 89.6572 72.6523 89.5726Z" fill="white"/>
</g>
</g>
</svg>
